<?xml version="1.0" encoding="utf-8"?>
<!-- Generator: Adobe Illustrator 18.0.0, SVG Export Plug-In . SVG Version: 6.00 Build 0)  -->
<!DOCTYPE svg PUBLIC "-//W3C//DTD SVG 1.1//EN" "http://www.w3.org/Graphics/SVG/1.1/DTD/svg11.dtd">
<svg version="1.1" id="Layer_1" xmlns="http://www.w3.org/2000/svg" xmlns:xlink="http://www.w3.org/1999/xlink" x="0px" y="0px"
	 viewBox="0 0 211.2 129.1" enable-background="new 0 0 211.2 129.1" xml:space="preserve">
<path fill="#69CAD1" d="M211.2,88.1c0,22.6-16.1,41-36,41c-1.1,0-2.3-0.1-3.4-0.2c0,0,0,0,0,0c-1.3,0.1-2.7,0.2-4.1,0.2H48.5
	c-0.4,0-0.8,0-1.2,0c-0.5,0-1,0-1.5,0c-0.6,0-1.2-0.1-1.7-0.1c-0.2,0-0.3,0-0.5,0h-0.4c-0.3,0-0.6,0-0.9,0c-0.4,0-0.8,0-1.3,0
	c-15.4-0.7-28.8-9.1-35.7-21.3c-0.9-1.6-1.8-3.4-2.5-5.1C1,98.1,0.1,93.4,0,88.6v-0.5c0-0.2,0-0.4,0-0.6c0.1-9.2,3.4-17.6,9-24.4
	c0,0,0-0.1,0.1-0.1c5.6-6.8,13.5-12,22.5-14.3c0-0.8,0.1-1.7,0.1-2.5c0.1-1.1,0.3-2.1,0.4-3.1c0-0.1,0.1-0.3,0.1-0.4
	c0-0.2,0.1-0.3,0.1-0.5c0.1-0.3,0.1-0.5,0.2-0.8c0.3-1.1,0.6-2.1,0.9-3.1c0.1-0.2,0.1-0.3,0.2-0.5c0.1-0.2,0.2-0.5,0.3-0.7
	c0.8-2,1.8-4,3-5.8c5.5-8.6,14.8-14.7,25.7-16.2c0.1,0,0.2,0,0.3,0c1.7-0.2,3.4-0.3,5.2-0.3c2.5,0,5,0.2,7.4,0.7
	c0.7,0.1,1.4,0.3,2.1,0.5c0.3,0.1,0.5,0.1,0.8,0.2c0.2,0.1,0.5,0.1,0.7,0.2c0.1,0,0.2,0.1,0.3,0.1c0.1,0,0.3,0.1,0.4,0.1
	c0.3,0.1,0.6,0.2,1,0.3c0.1,0.1,0.3,0.1,0.4,0.1c0.2,0.1,0.4,0.1,0.5,0.2c0.2,0.1,0.4,0.2,0.6,0.3c0.6-0.5,1.1-1,1.7-1.5
	c0.3-0.3,0.6-0.5,0.8-0.7c0.7-0.5,1.3-1.1,2-1.6c2-1.6,4.2-3,6.4-4.3c0.4-0.2,0.7-0.4,1.1-0.6c0.4-0.2,0.7-0.4,1.1-0.6
	c0,0,0.1-0.1,0.2-0.1c0.5-0.3,0.9-0.5,1.4-0.7c0.6-0.3,1.2-0.6,1.8-0.9c0.4-0.2,0.8-0.4,1.2-0.5c0.4-0.2,0.8-0.3,1.2-0.5
	c0.1-0.1,0.3-0.1,0.4-0.2c0.5-0.2,0.9-0.4,1.4-0.6c0.6-0.2,1.2-0.4,1.8-0.7c0.4-0.2,0.8-0.3,1.2-0.4c0.4-0.1,0.8-0.3,1.2-0.4
	c0.4-0.1,0.8-0.3,1.2-0.4c0.4-0.1,0.8-0.2,1.2-0.4c0.5-0.1,1-0.3,1.5-0.4c0.5-0.1,1-0.3,1.5-0.4c3.4-0.8,6.9-1.3,10.5-1.5h0
	c0.2,0,0.6-0.1,0.7-0.1c0.9,0,1,0.1,1,0.1c26.6,1.7,47.3,19.6,52.2,43c0.2,0.9,0.3,1.7,0.5,2.6c0.1,0.5,0.1,0.9,0.2,1.4
	c0,0.1,0,0.1,0,0.2l3.3,0.3c1.5,0.3,3.1,0.7,4.5,1.2c2.4,0.8,4.8,1.9,6.9,3.3C203.6,59,211.2,72.5,211.2,88.1z"/>
</svg>
